<svg width="26" height="24" viewBox="0 0 26 24" fill="none" xmlns="http://www.w3.org/2000/svg">
<path fill-rule="evenodd" clip-rule="evenodd" d="M0.199951 13.3334C0.199951 12.8915 0.558123 12.5334 0.999951 12.5334H6.33328C6.77511 12.5334 7.13328 12.8915 7.13328 13.3334V22.6667C7.13328 23.1085 6.77511 23.4667 6.33328 23.4667H0.999951C0.558123 23.4667 0.199951 23.1085 0.199951 22.6667V13.3334ZM1.79995 14.1334V21.8667H5.53328V14.1334H1.79995Z" fill="#94A3B6"/>
<path fill-rule="evenodd" clip-rule="evenodd" d="M9.53328 6.66669C9.53328 6.22486 9.89146 5.86669 10.3333 5.86669H15.6666C16.1084 5.86669 16.4666 6.22486 16.4666 6.66669V22.6667C16.4666 23.1085 16.1084 23.4667 15.6666 23.4667H10.3333C9.89146 23.4667 9.53328 23.1085 9.53328 22.6667V6.66669ZM11.1333 7.46669V21.8667H14.8666V7.46669H11.1333Z" fill="#94A3B6"/>
<path fill-rule="evenodd" clip-rule="evenodd" d="M18.8666 1.33336C18.8666 0.891528 19.2248 0.533356 19.6666 0.533356H24.9999C25.4418 0.533356 25.8 0.891528 25.8 1.33336V22.6667C25.8 23.1085 25.4418 23.4667 24.9999 23.4667H19.6666C19.2248 23.4667 18.8666 23.1085 18.8666 22.6667V1.33336ZM20.4666 2.13336V21.8667H24.2V2.13336H20.4666Z" fill="#94A3B6"/>
</svg>
