<svg width="26" height="26" viewBox="0 0 26 26" fill="none" xmlns="http://www.w3.org/2000/svg">
<path fill-rule="evenodd" clip-rule="evenodd" d="M12.9999 11.1333C11.969 11.1333 11.1333 11.9691 11.1333 13C11.1333 14.0309 11.969 14.8667 12.9999 14.8667C14.0309 14.8667 14.8666 14.0309 14.8666 13C14.8666 11.9691 14.0309 11.1333 12.9999 11.1333ZM9.53328 13C9.53328 11.0854 11.0854 9.53334 12.9999 9.53334C14.9145 9.53334 16.4666 11.0854 16.4666 13C16.4666 14.9146 14.9145 16.4667 12.9999 16.4667C11.0854 16.4667 9.53328 14.9146 9.53328 13Z" fill="#94A3B6"/>
<path fill-rule="evenodd" clip-rule="evenodd" d="M13 8.46668C10.4963 8.46668 8.46662 10.4963 8.46662 13C8.46662 15.5037 10.4963 17.5333 13 17.5333C15.5036 17.5333 17.5333 15.5037 17.5333 13C17.5333 10.4963 15.5036 8.46668 13 8.46668ZM6.86662 13C6.86662 9.61267 9.6126 6.86668 13 6.86668C16.3873 6.86668 19.1333 9.61267 19.1333 13C19.1333 16.3874 16.3873 19.1333 13 19.1333C9.6126 19.1333 6.86662 16.3874 6.86662 13Z" fill="#94A3B6"/>
<path fill-rule="evenodd" clip-rule="evenodd" d="M13 1.80001C12.6335 1.80001 12.282 1.9456 12.0229 2.20474C11.7637 2.46388 11.6181 2.81535 11.6181 3.18183V3.37048C11.6161 3.87753 11.4659 4.37293 11.1859 4.79569C10.9059 5.21845 10.5084 5.55012 10.0424 5.74987C9.9659 5.78264 9.88492 5.80323 9.8024 5.81102C9.3705 5.96821 8.90357 6.00846 8.44931 5.92609C7.93814 5.83341 7.46646 5.58972 7.09508 5.22645L7.08878 5.22028L7.02336 5.15479C6.89502 5.02631 6.74231 4.92408 6.57456 4.85454C6.40681 4.785 6.227 4.7492 6.04541 4.7492C5.86381 4.7492 5.684 4.785 5.51625 4.85454C5.3485 4.92408 5.1961 5.026 5.06777 5.15447C4.93929 5.28281 4.83674 5.43583 4.7672 5.60359C4.69766 5.77134 4.66187 5.95115 4.66187 6.13274C4.66187 6.31433 4.69766 6.49414 4.7672 6.66189C4.83674 6.82964 4.93866 6.98204 5.06714 7.11038L5.13915 7.18238C5.50242 7.55376 5.74607 8.02547 5.83876 8.53664C5.92994 9.03951 5.87086 9.55792 5.66921 10.0271C5.48749 10.5068 5.16789 10.9221 4.7504 11.2207C4.32606 11.5242 3.82023 11.693 3.29866 11.7052L3.27995 11.7057L3.18177 11.7055C2.81529 11.7055 2.46382 11.8511 2.20468 12.1102C1.94553 12.3693 1.79995 12.7208 1.79995 13.0873C1.79995 13.4538 1.94553 13.8052 2.20468 14.0644C2.46382 14.3235 2.81529 14.4691 3.18177 14.4691H3.37041C3.87747 14.4711 4.37287 14.6214 4.79563 14.9014C5.2172 15.1805 5.54819 15.5766 5.74811 16.0409C5.95649 16.5152 6.01846 17.0409 5.92603 17.5507C5.83335 18.0618 5.58966 18.5335 5.22639 18.9049L5.22021 18.9112L5.15473 18.9766C5.02625 19.1049 4.92401 19.2577 4.85448 19.4254C4.78494 19.5932 4.74914 19.773 4.74914 19.9546C4.74914 20.1361 4.78494 20.316 4.85448 20.4837C4.92401 20.6515 5.02594 20.8039 5.15441 20.9322C5.28274 21.0607 5.43577 21.1632 5.60352 21.2328C5.77128 21.3023 5.95109 21.3381 6.13268 21.3381C6.31427 21.3381 6.49408 21.3023 6.66183 21.2328C6.82958 21.1632 6.98198 21.0613 7.11031 20.9328L7.18232 20.8608C7.5537 20.4975 8.02541 20.2539 8.53658 20.1612C9.03945 20.07 9.55785 20.1291 10.0271 20.3308C10.5067 20.5125 10.9221 20.8321 11.2207 21.2496C11.5242 21.6739 11.693 22.1797 11.7052 22.7013L11.7056 22.72L11.7054 22.8182C11.7054 23.1847 11.851 23.5361 12.1101 23.7953C12.3693 24.0544 12.7207 24.2 13.0872 24.2C13.4537 24.2 13.8052 24.0544 14.0643 23.7953C14.3235 23.5361 14.469 23.1847 14.469 22.8182V22.6327L14.469 22.6295C14.4711 22.1225 14.6213 21.6271 14.9013 21.2043C15.1805 20.7828 15.5765 20.4518 16.0409 20.2518C16.5151 20.0435 17.0408 19.9815 17.5506 20.0739C18.0618 20.1666 18.5334 20.4103 18.9048 20.7736L18.9111 20.7797L18.9765 20.8452C19.1049 20.9737 19.2576 21.0759 19.4253 21.1455C19.5931 21.215 19.7729 21.2508 19.9545 21.2508C20.1361 21.2508 20.3159 21.215 20.4836 21.1455C20.6514 21.0759 20.8038 20.974 20.9321 20.8455C21.0606 20.7172 21.1632 20.5642 21.2327 20.3964C21.3022 20.2287 21.338 20.0489 21.338 19.8673C21.338 19.6857 21.3022 19.5059 21.2327 19.3381C21.1632 19.1704 21.0612 19.018 20.9328 18.8896L20.8608 18.8176C20.4975 18.4463 20.2538 17.9745 20.1611 17.4634C20.0687 16.9536 20.1307 16.4279 20.3391 15.9536C20.539 15.4893 20.87 15.0933 21.2915 14.8141C21.7143 14.5341 22.2097 14.3839 22.7168 14.3818L22.7199 14.3818L22.8181 14.3818C23.1846 14.3818 23.5361 14.2362 23.7952 13.9771C24.0544 13.718 24.1999 13.3665 24.1999 13C24.1999 12.6335 24.0544 12.2821 23.7952 12.0229C23.5361 11.7638 23.1846 11.6182 22.8181 11.6182H22.6327L22.6295 11.6182C22.1224 11.6162 21.627 11.4659 21.2043 11.1859C20.7815 10.906 20.4498 10.5085 20.2501 10.0424C20.2173 9.96596 20.1967 9.88498 20.1889 9.80246C20.0318 9.37056 19.9915 8.90363 20.0739 8.44937C20.1666 7.9382 20.4102 7.46652 20.7735 7.09515L20.7797 7.08884L20.8452 7.02342C20.9736 6.89508 21.0759 6.74237 21.1454 6.57462C21.215 6.40687 21.2508 6.22706 21.2508 6.04547C21.2508 5.86388 21.215 5.68406 21.1454 5.51631C21.0759 5.34856 20.974 5.19616 20.8455 5.06783C20.7172 4.93935 20.5641 4.8368 20.3964 4.76726C20.2286 4.69772 20.0488 4.66193 19.8672 4.66193C19.6856 4.66193 19.5058 4.69772 19.3381 4.76726C19.1703 4.8368 19.0179 4.93872 18.8896 5.0672L18.8176 5.13921C18.4462 5.50248 17.9745 5.74613 17.4633 5.83882C16.9536 5.93125 16.4278 5.86927 15.9536 5.6609C15.4892 5.46098 15.0932 5.12999 14.814 4.70842C14.534 4.28566 14.3838 3.79026 14.3818 3.2832L14.3818 3.28001V3.18183C14.3818 2.81535 14.2362 2.46388 13.977 2.20474C13.7179 1.9456 13.3664 1.80001 13 1.80001ZM21.0727 16.2727L21.8046 16.5958C21.7239 16.7785 21.6998 16.9813 21.7355 17.1779C21.7709 17.3733 21.8637 17.5537 22.0019 17.6961L22.0635 17.7576V17.7576C22.3406 18.0345 22.5607 18.3636 22.7107 18.7254C22.8608 19.0874 22.938 19.4754 22.938 19.8673C22.938 20.2591 22.8608 20.6472 22.7107 21.0091C22.5607 21.371 22.3409 21.6997 22.0638 21.9766C21.787 22.2537 21.4582 22.4735 21.0964 22.6235C20.7344 22.7736 20.3464 22.8508 19.9545 22.8508C19.5626 22.8508 19.1746 22.7736 18.8126 22.6235C18.4507 22.4735 18.1218 22.2535 17.8449 21.9763L17.7833 21.9147C17.6409 21.7765 17.4605 21.6837 17.2651 21.6483C17.0685 21.6126 16.8658 21.6367 16.683 21.7174L16.6751 21.7208C16.4959 21.7976 16.343 21.9252 16.2353 22.0878C16.1278 22.25 16.0701 22.44 16.069 22.6346V22.8182C16.069 23.609 15.7549 24.3675 15.1957 24.9267C14.6365 25.4859 13.8781 25.8 13.0872 25.8C12.2964 25.8 11.538 25.4859 10.9788 24.9267C10.4196 24.3675 10.1054 23.609 10.1054 22.8182V22.7307C10.0992 22.533 10.0344 22.3414 9.91927 22.1804C9.80253 22.0171 9.6394 21.8928 9.45108 21.8236C9.43526 21.8177 9.41963 21.8114 9.40421 21.8046C9.22141 21.724 9.01864 21.6999 8.82204 21.7355C8.62667 21.771 8.4463 21.8637 8.30388 22.002L8.24231 22.0636V22.0636C7.96545 22.3407 7.63639 22.5608 7.27454 22.7108C6.91255 22.8609 6.52454 22.9381 6.13268 22.9381C5.74082 22.9381 5.35281 22.8609 4.99082 22.7108C4.62897 22.5608 4.30022 22.341 4.02336 22.0639C3.74626 21.787 3.52644 21.4583 3.37644 21.0964C3.22638 20.7344 3.14914 20.3464 3.14914 19.9546C3.14914 19.5627 3.22638 19.1747 3.37644 18.8127C3.52644 18.4508 3.74627 18.1221 4.02336 17.8452V17.8452L4.08526 17.7833C4.22351 17.6409 4.31628 17.4606 4.3517 17.2652C4.38735 17.0686 4.36328 16.8658 4.28261 16.683L4.27914 16.6752C4.20232 16.4959 4.07479 16.343 3.91219 16.2353C3.74997 16.1279 3.55994 16.0701 3.36539 16.0691H3.18177C2.39094 16.0691 1.6325 15.7549 1.07331 15.1957C0.514106 14.6365 0.199951 13.8781 0.199951 13.0873C0.199951 12.2965 0.514106 11.538 1.07331 10.9788C1.6325 10.4196 2.39094 10.1055 3.18177 10.1055H3.26923C3.46701 10.0993 3.65856 10.0345 3.81961 9.91933C3.98282 9.8026 4.10713 9.63946 4.17639 9.45114C4.18221 9.43532 4.18853 9.41969 4.19533 9.40427C4.27601 9.22147 4.30007 9.0187 4.26443 8.8221C4.229 8.62673 4.13623 8.44636 3.99796 8.30394L3.9364 8.24238C3.65916 7.96544 3.43922 7.63658 3.28917 7.2746C3.13911 6.91261 3.06187 6.5246 3.06187 6.13274C3.06187 5.74088 3.13911 5.35287 3.28917 4.99088C3.43917 4.62903 3.65899 4.30028 3.93608 4.02342C4.21295 3.74633 4.5417 3.5265 4.90355 3.3765C5.26553 3.22644 5.65355 3.1492 6.04541 3.1492C6.43726 3.1492 6.82528 3.22644 7.18726 3.3765C7.54925 3.52656 7.87811 3.74649 8.15504 4.02373L8.2166 4.08529C8.35902 4.22356 8.53939 4.31634 8.73476 4.35176C8.93137 4.38741 9.13414 4.36334 9.31694 4.28267C9.38292 4.25355 9.45237 4.23356 9.52336 4.2231C9.6547 4.14621 9.76726 4.04005 9.85189 3.91225C9.95932 3.75003 10.0171 3.56 10.0181 3.36546V3.18183C10.0181 2.391 10.3323 1.63257 10.8915 1.07337C11.4507 0.514167 12.2091 0.200012 13 0.200012C13.7908 0.200012 14.5492 0.514167 15.1084 1.07337C15.6676 1.63257 15.9818 2.391 15.9818 3.18183V3.27818C15.9828 3.47273 16.0406 3.66276 16.148 3.82498C16.2557 3.98758 16.4086 4.11515 16.5878 4.19197L16.5957 4.19535C16.7785 4.27603 16.9813 4.30014 17.1779 4.26449C17.3732 4.22907 17.5536 4.1363 17.696 3.99805L17.7576 3.93646V3.93646C18.0345 3.65937 18.3635 3.43923 18.7254 3.28923C19.0874 3.13917 19.4754 3.06193 19.8672 3.06193C20.2591 3.06193 20.6471 3.13917 21.0091 3.28923C21.3709 3.43923 21.6997 3.65905 21.9765 3.93614C22.2536 4.21301 22.4735 4.54176 22.6235 4.90361C22.7735 5.26559 22.8508 5.65361 22.8508 6.04547C22.8508 6.43732 22.7735 6.82534 22.6235 7.18732C22.4734 7.54931 22.2535 7.87817 21.9762 8.1551L21.9147 8.21664C21.7764 8.35906 21.6836 8.53944 21.6482 8.73482C21.6126 8.93143 21.6366 9.1342 21.7173 9.317C21.7464 9.38298 21.7664 9.45243 21.7769 9.52343C21.8537 9.65476 21.9599 9.76732 22.0877 9.85195C22.2499 9.95938 22.44 10.0172 22.6345 10.0182H22.8181C23.609 10.0182 24.3674 10.3323 24.9266 10.8915C25.4858 11.4507 25.8 12.2092 25.8 13C25.8 13.7908 25.4858 14.5493 24.9266 15.1085C24.3674 15.6677 23.609 15.9818 22.8181 15.9818H22.7218C22.5272 15.9829 22.3372 16.0406 22.175 16.1481C22.0124 16.2558 21.8848 16.4086 21.808 16.5879L21.0727 16.2727Z" fill="#94A3B6"/>
</svg>
