<svg width="29" height="12" viewBox="0 0 29 12" fill="none" xmlns="http://www.w3.org/2000/svg">
<path d="M4.0807 11.2563C6.76869 11.2563 8.36537 9.1543 8.36537 5.5874C8.36537 2.08643 6.66615 0.16748 4.1393 0.16748C1.83949 0.16748 0.213515 1.71289 0.213515 3.87354C0.213515 5.90234 1.67836 7.38184 3.69252 7.38184C4.93031 7.38184 5.93373 6.81055 6.43178 5.80713H6.55629C6.53432 8.29004 5.64809 9.71094 4.10268 9.71094C3.19447 9.71094 2.46937 9.21289 2.24232 8.40723H0.36C0.667617 10.1284 2.14711 11.2563 4.0807 11.2563ZM4.14662 5.92432C2.91615 5.92432 2.06654 5.06006 2.06654 3.81494C2.06654 2.62109 2.9601 1.70557 4.15394 1.70557C5.34779 1.70557 6.24135 2.63574 6.24135 3.85156C6.24135 5.05273 5.36977 5.92432 4.14662 5.92432ZM11.5165 5.77051C12.2123 5.77051 12.6884 5.27979 12.6884 4.63525C12.6884 3.9834 12.2123 3.5 11.5165 3.5C10.828 3.5 10.3446 3.9834 10.3446 4.63525C10.3446 5.27979 10.828 5.77051 11.5165 5.77051ZM11.5165 11.1465C12.2123 11.1465 12.6884 10.6558 12.6884 10.0039C12.6884 9.35938 12.2123 8.86865 11.5165 8.86865C10.828 8.86865 10.3446 9.35938 10.3446 10.0039C10.3446 10.6558 10.828 11.1465 11.5165 11.1465ZM19.6041 11H21.4132V8.97119H22.8414V7.41113H21.4132V0.431152H18.7472C17.3116 2.61377 15.8102 5.04541 14.4405 7.42578V8.97119H19.6041V11ZM16.191 7.34521C17.2238 5.55078 18.4469 3.59521 19.5309 1.93994H19.6334V7.45508H16.191V7.34521ZM26.93 11H28.8197V0.431152H26.9374L24.1761 2.37207V4.15186L26.8055 2.2915H26.93V11Z" fill="black"/>
</svg>
