<svg width="32" height="32" viewBox="0 0 32 32" fill="none" xmlns="http://www.w3.org/2000/svg">
<path d="M28.9716 24.7677C26.3651 23.1113 24.3781 20.6643 23.3328 17.8392C23.3369 17.8255 23.3402 17.8114 23.3436 17.7973C24.1367 16.1336 24.5941 14.1807 24.5941 12.0937C24.5941 6.12973 20.8228 2.66676 16.0002 2.66666C16.0002 2.66666 16.0001 2.66666 16.0001 2.66666C16 2.66666 16 2.66666 15.9999 2.66666C11.2197 2.66676 7.40607 6.08926 7.40607 12.0937C7.40607 14.1807 7.86343 16.1336 8.65663 17.7974C8.66002 17.8114 8.66325 17.8255 8.66741 17.8393C7.62202 20.6643 5.63508 23.1113 3.0286 24.7677C2.55093 25.0712 2.54509 25.7678 3.01755 26.0793L7.75728 29.2043C7.9901 29.3578 8.2873 29.3756 8.53673 29.2508C9.5028 28.7678 10.3278 28.0512 10.9419 27.1677C11.5831 28.4501 12.9088 29.3333 14.4375 29.3333H17.5626C19.0914 29.3333 20.417 28.4501 21.0583 27.1677C21.6723 28.0513 22.4973 28.7678 23.4634 29.2508C23.7139 29.376 24.0109 29.3572 24.2429 29.2043L28.9826 26.0793C29.4551 25.7678 29.4492 25.0712 28.9716 24.7677ZM16.7814 4.26489C19.0129 4.47259 20.7686 5.57864 21.8437 7.35416H16.7814V4.26489ZM16.7814 8.90624H22.5555C22.8665 9.85098 23.0315 10.927 23.0315 12.0937H16.7814V8.90624ZM16.7814 13.6458H22.9345C22.7938 14.7701 22.5018 15.8535 22.0715 16.8333H16.7814V13.6458ZM15.2188 4.26489V7.35416H10.1564C11.2316 5.57864 12.9872 4.47259 15.2188 4.26489ZM9.44468 8.90624H15.2188V12.0937H8.96862C8.96862 10.927 9.13363 9.85098 9.44468 8.90624ZM15.2188 13.6562V16.8333H9.9287C9.49832 15.8535 9.20634 14.7805 9.06571 13.6562H15.2188ZM10.5312 23.4957C10.5312 25.2051 9.65687 26.7558 8.2224 27.6394L4.84454 25.4123C6.92684 23.8586 8.58611 21.8232 9.66322 19.5092C9.93313 19.886 10.223 20.2389 10.5312 20.5648C10.5312 21.1236 10.5312 22.93 10.5312 23.4957ZM10.7873 18.3958H15.2188V21.4619C13.3579 21.1828 11.8418 19.9559 10.7873 18.3958ZM19.9064 25.4271C19.9064 26.7194 18.855 27.7708 17.5626 27.7708H14.4375C13.1452 27.7708 12.0937 26.7194 12.0937 25.4271C12.0937 24.142 12.0937 23.1719 12.0937 21.881C13.2664 22.6495 14.5944 23.0833 16.0001 23.0833C17.4058 23.0833 18.7338 22.6495 19.9064 21.881C19.9064 23.1511 19.9064 24.1968 19.9064 25.4271ZM16.7814 21.4619V18.3854H21.2129C20.158 19.9459 18.6418 21.1828 16.7814 21.4619ZM23.7778 27.6394C22.3433 26.7558 21.469 25.2051 21.469 23.4957C21.469 22.9304 21.469 21.1258 21.469 20.5648C21.7771 20.2389 22.067 19.886 22.3369 19.5092C23.414 21.8232 25.0733 23.8586 27.1556 25.4123L23.7778 27.6394Z" fill="url(#paint0_linear_475_2227)"/>
<defs>
<linearGradient id="paint0_linear_475_2227" x1="29.3334" y1="29.3333" x2="1.5142" y2="28.0712" gradientUnits="userSpaceOnUse">
<stop stop-color="#0993F0"/>
<stop offset="1" stop-color="#32BEF9"/>
</linearGradient>
</defs>
</svg>
